<svg width="80" height="80" viewBox="0 0 80 80" fill="none" xmlns="http://www.w3.org/2000/svg">
<path d="M78.25 39.9437C78.25 18.8562 61.0875 1.69995 40 1.69995C18.9062 1.69995 1.75 18.8562 1.75 39.9437V74.5812C1.75 76.6499 3.43125 78.3312 5.5 78.3312H74.5C76.5687 78.3312 78.25 76.6499 78.25 74.5812V39.9437Z" fill="#1A6CA2"/>
<path d="M40.0001 69.9688C56.5563 69.9688 70.0251 56.5 70.0251 39.9438C70.0251 23.3938 56.5563 9.92505 40.0001 9.92505C23.4438 9.92505 9.9751 23.3938 9.9751 39.9438C9.9751 56.5 23.4438 69.9688 40.0001 69.9688Z" fill="white"/>
<path d="M39.9999 6.7251C58.3187 6.7251 73.2249 21.6313 73.2249 39.9501C73.2249 58.2751 58.3187 73.1813 39.9999 73.1813C21.6812 73.1813 6.7749 58.2688 6.7749 39.9438C6.7749 21.6251 21.6749 6.7251 39.9999 6.7251ZM39.9999 69.9688C56.5562 69.9688 70.0249 56.5001 70.0249 39.9438C70.0249 23.3938 56.5562 9.9251 39.9999 9.9251C23.4437 9.9251 9.9749 23.3938 9.9749 39.9438C9.9749 56.5001 23.4437 69.9688 39.9999 69.9688Z" fill="#B8E9F4"/>
<path d="M14.0312 41.8563C15.0874 41.8563 15.9437 41 15.9437 39.9438C15.9437 38.8875 15.0874 38.0312 14.0312 38.0312C12.9749 38.0312 12.1187 38.8875 12.1187 39.9438C12.1187 41 12.9749 41.8563 14.0312 41.8563Z" fill="#2F2F2F"/>
<path d="M15.8562 53.8876C15.604 53.447 15.536 52.9246 15.6671 52.4341C15.7982 51.9436 16.1178 51.5248 16.5562 51.2688C17.4749 50.7376 18.6437 51.0501 19.1749 51.9688C19.7062 52.8876 19.3937 54.0563 18.4749 54.5876C17.5562 55.1188 16.3812 54.8063 15.8562 53.8876ZM26.0562 64.0938C25.8379 63.9683 25.6465 63.8008 25.4931 63.601C25.3396 63.4013 25.2272 63.1732 25.1621 62.9299C25.0971 62.6866 25.0807 62.4328 25.114 62.1831C25.1473 61.9335 25.2296 61.6928 25.3562 61.4751C25.4818 61.2568 25.6492 61.0654 25.849 60.9119C26.0487 60.7585 26.2768 60.6461 26.5201 60.581C26.7635 60.516 27.0172 60.4996 27.2669 60.5329C27.5165 60.5662 27.7572 60.6485 27.9749 60.7751C28.8937 61.3001 29.2124 62.4751 28.6812 63.3938C28.4252 63.8339 28.0052 64.1547 27.5132 64.2859C27.0213 64.4171 26.4974 64.348 26.0562 64.0938Z" fill="#2F2F2F"/>
<path d="M53.9357 64.0846C54.8504 63.5564 55.1639 62.3868 54.6357 61.472C54.1076 60.5573 52.938 60.2439 52.0232 60.772C51.1085 61.3001 50.7951 62.4698 51.3232 63.3845C51.8513 64.2993 53.021 64.6127 53.9357 64.0846Z" fill="#2F2F2F"/>
<path d="M64.1437 53.8875C63.8882 54.3265 63.4689 54.6461 62.9779 54.7762C62.4869 54.9063 61.9643 54.8362 61.525 54.5812C61.0857 54.3276 60.7652 53.9099 60.6339 53.4199C60.5027 52.93 60.5714 52.408 60.825 51.9687C60.9506 51.7504 61.118 51.559 61.3178 51.4056C61.5175 51.2522 61.7456 51.1397 61.9889 51.0747C62.2323 51.0096 62.486 50.9933 62.7357 51.0266C62.9854 51.0599 63.226 51.1422 63.4437 51.2687C64.3625 51.8 64.675 52.9687 64.1437 53.8875ZM67.8812 39.9437C67.8812 41.0062 67.025 41.8562 65.9688 41.8562C65.4615 41.8562 64.9751 41.6547 64.6164 41.2961C64.2577 40.9374 64.0562 40.451 64.0562 39.9437C64.0562 38.8812 64.9125 38.025 65.9688 38.025C67.025 38.0312 67.8812 38.8875 67.8812 39.9437ZM64.15 26.0062C64.675 26.925 64.3625 28.0937 63.45 28.625C62.5312 29.1562 61.3625 28.8437 60.8312 27.9312C60.7053 27.713 60.6236 27.4721 60.591 27.2222C60.5583 26.9724 60.5752 26.7185 60.6409 26.4753C60.7065 26.232 60.8194 26.0041 60.9733 25.8045C61.1272 25.605 61.3189 25.4378 61.5375 25.3125C62.4437 24.775 63.6187 25.0875 64.15 26.0062ZM53.9375 15.8C54.8562 16.3312 55.1625 17.5 54.6437 18.4187C54.3896 18.8591 53.9712 19.1807 53.4803 19.3131C52.9894 19.4455 52.4661 19.3779 52.025 19.125C51.5853 18.8702 51.2647 18.4513 51.1334 17.9604C51.0022 17.4694 51.0711 16.9464 51.325 16.5062C51.4496 16.2878 51.6162 16.0961 51.8152 15.9423C52.0142 15.7884 52.2416 15.6755 52.4844 15.6098C52.7272 15.5442 52.9805 15.5272 53.2299 15.5598C53.4793 15.5925 53.7198 15.6741 53.9375 15.8ZM26.0625 15.8C26.9812 15.275 28.15 15.5875 28.6812 16.5C29.2125 17.4187 28.9 18.5875 27.9812 19.1187C27.0687 19.65 25.8937 19.3375 25.3625 18.4187C25.2359 18.201 25.1537 17.9603 25.1203 17.7107C25.087 17.461 25.1034 17.2072 25.1684 16.9639C25.2335 16.7206 25.3459 16.4925 25.4994 16.2928C25.6528 16.093 25.8442 15.9256 26.0625 15.8ZM15.8562 26.0062C16.1111 25.5665 16.5299 25.2459 17.0209 25.1147C17.5118 24.9834 18.0348 25.0523 18.475 25.3062C18.8034 25.4959 19.0682 25.7788 19.2359 26.1191C19.4036 26.4593 19.4665 26.8416 19.4169 27.2177C19.3672 27.5937 19.2071 27.9466 18.9569 28.2316C18.7067 28.5167 18.3775 28.7211 18.0111 28.8191C17.6446 28.917 17.2574 28.9041 16.8983 28.7819C16.5392 28.6598 16.2244 28.4338 15.9937 28.1327C15.763 27.8316 15.6269 27.4688 15.6024 27.0903C15.5779 26.7118 15.6663 26.3345 15.8562 26.0062Z" fill="#2F2F2F"/>
<path d="M40.0001 45.0375C42.8098 45.0375 45.0876 42.7598 45.0876 39.95C45.0876 37.1403 42.8098 34.8625 40.0001 34.8625C37.1903 34.8625 34.9126 37.1403 34.9126 39.95C34.9126 42.7598 37.1903 45.0375 40.0001 45.0375Z" fill="#2F2F2F"/>
<path d="M37.6064 41.7125H42.3939V14.4375C42.3939 13.4 41.5564 12.5625 40.5189 12.5625H39.4814C38.4439 12.5625 37.6064 13.4 37.6064 14.4375V41.7125Z" fill="#2F2F2F"/>
<path d="M40.0001 45.0375C42.8098 45.0375 45.0876 42.7598 45.0876 39.95C45.0876 37.1403 42.8098 34.8625 40.0001 34.8625C37.1903 34.8625 34.9126 37.1403 34.9126 39.95C34.9126 42.7598 37.1903 45.0375 40.0001 45.0375Z" fill="#2F2F2F"/>
<path d="M42.3313 38.0939L41.0938 42.7126L24.4688 38.2626C24.2311 38.1991 24.0083 38.0894 23.813 37.9398C23.6177 37.7901 23.4539 37.6034 23.3308 37.3904C23.2078 37.1774 23.1279 36.9422 23.0958 36.6982C23.0637 36.4543 23.08 36.2065 23.1438 35.9689L23.4126 34.9626C23.4764 34.7244 23.5865 34.5012 23.7367 34.3057C23.8869 34.1101 24.0741 33.9461 24.2878 33.8231C24.5014 33.7 24.7372 33.6203 24.9817 33.5884C25.2262 33.5566 25.4745 33.5733 25.7126 33.6376L42.3313 38.0939Z" fill="#2F2F2F"/>
<path d="M40 41.8563C41.0597 41.8563 41.9188 41 41.9188 39.9438C41.9188 38.8875 41.0597 38.0312 40 38.0312C38.9404 38.0312 38.0813 38.8875 38.0813 39.9438C38.0813 41 38.9404 41.8563 40 41.8563Z" fill="white"/>
<path d="M40 67.8313C40.5073 67.8313 40.9937 67.6298 41.3524 67.2712C41.7111 66.9125 41.9125 66.4261 41.9125 65.9188C41.9125 64.8626 41.0625 64.0063 40 64.0063C38.9438 64.0063 38.0813 64.8626 38.0813 65.9188C38.0813 66.9688 38.9438 67.8376 40 67.8313Z" fill="#2F2F2F"/>
</svg>
