<svg width="100" height="100" viewBox="0 0 100 100" fill="none" xmlns="http://www.w3.org/2000/svg">
<path d="M45.0624 77.5625C44.5781 77.9922 44.9296 78.8828 44.9296 79.4844V81.5625C44.9296 82.6953 44.5234 83.6797 43.8828 84.5703C42.1562 86.9922 39.0859 87.9766 36.4843 89.1406C34.7265 89.9297 30.4218 91.7812 30.6718 94.2109C30.9843 97.1719 36.1484 98.4219 38.3828 98.9297C43.5703 100.117 48.9296 99.8203 54.1874 99.4062C56.414 99.2266 58.7031 98.8828 60.8671 98.3203C62.4296 97.9141 66.2265 96.9531 66.7499 95.0938C67.7031 91.6641 60.8437 89.7031 58.7265 88.7891C55.8203 87.5391 52.5859 85.8359 52.5859 82.2266C52.5781 81.2344 52.5781 80.2578 52.7265 79.2969C52.8203 78.6562 52.5859 77.3438 53.2499 77.0156L45.0624 77.5625Z" fill="white"/>
<path d="M48.6796 83.7344C49.539 89.2266 54.9921 91.5625 57.1406 92.4844C57.4921 92.6328 57.9531 92.8125 58.4843 93.0156C59.0078 93.2188 60.0937 93.625 61.0937 94.0938C60.7421 94.1953 60.3359 94.3047 59.8671 94.4297C58.0546 94.8984 56.039 95.2266 53.8828 95.3984C51.5781 95.5781 49.1093 95.75 46.7343 95.75C43.8984 95.75 41.4687 95.5078 39.2812 95.0078C37.6093 94.6328 36.5078 94.2656 35.7812 93.9688C36.3046 93.6797 37.0078 93.3281 37.9531 92.8984L38.1328 92.8203C38.5234 92.6406 38.9374 92.4688 39.3437 92.2969C41.8828 91.2188 45.0468 89.8672 47.1562 86.9219C47.8828 85.9063 48.3906 84.8438 48.6796 83.7344ZM53.2578 77.0234L45.0624 77.5625C44.5781 77.9922 44.9296 78.8828 44.9296 79.4844V81.5625C44.9296 82.6953 44.5234 83.6797 43.8828 84.5703C42.1562 86.9922 39.0859 87.9766 36.4843 89.1406C34.7265 89.9297 30.4218 91.7812 30.6718 94.2109C30.9843 97.1719 36.1484 98.4219 38.3828 98.9297C41.1249 99.5547 43.9218 99.7734 46.7265 99.7734C49.2187 99.7734 51.7187 99.6016 54.1953 99.4063C56.4218 99.2266 58.7109 98.8828 60.8749 98.3203C62.4374 97.9141 66.2343 96.9531 66.7578 95.0938C67.7109 91.6641 60.8515 89.7031 58.7343 88.7891C55.8281 87.5391 52.5937 85.8359 52.5937 82.2266C52.5859 81.2344 52.5859 80.2578 52.7343 79.2969C52.8281 78.6719 52.5937 77.3516 53.2578 77.0234Z" fill="#78A3AD"/>
<path d="M74.7422 44.7656C73.0625 37.0703 75.5313 31.4609 75.5313 31.4609H24.1875C24.1875 31.4609 26.6563 37.0703 24.9766 44.7656C23.4688 52.6797 18.2344 59.75 20.5157 70.7344C24.1875 88.3984 49.1485 87.9062 49.1485 87.9062C49.1485 87.9062 49.4063 87.9062 49.8672 87.8906C50.3282 87.9062 50.586 87.9062 50.586 87.9062C50.586 87.9062 75.5391 88.3984 79.211 70.7344C81.4844 59.75 76.25 52.6797 74.7422 44.7656Z" fill="white"/>
<path d="M70.461 35.4297C70.086 38.1172 69.9922 41.6172 70.8438 45.5547C71.375 48.2891 72.2735 50.8672 73.1407 53.3672C74.9532 58.5469 76.6563 63.4375 75.3125 69.9219C72.4844 83.5391 52.9922 83.9297 50.7813 83.9297H50.5157C50.4375 83.9297 50.2578 83.9297 50 83.9219H49.7188C49.461 83.9297 49.2813 83.9297 49.1875 83.9297H48.9297C46.7188 83.9297 27.2266 83.5391 24.3907 69.9219C23.0469 63.4453 24.75 58.5547 26.5625 53.375C27.4375 50.875 28.336 48.2969 28.8594 45.5625C29.711 41.6172 29.6172 38.1172 29.25 35.4375H70.461M75.5313 31.4609H24.1875C24.1875 31.4609 26.6563 37.0703 24.9766 44.7656C23.4688 52.6797 18.2344 59.75 20.5157 70.7344C23.9922 87.4609 46.5547 87.9062 48.9453 87.9062H49.211C49.3125 87.9062 49.5391 87.9062 49.8672 87.8906C50.1953 87.8984 50.4219 87.9062 50.5235 87.9062H50.7891C53.1719 87.9062 75.7344 87.4609 79.211 70.7344C81.4922 59.75 76.2578 52.6797 74.75 44.7656C73.0625 37.0703 75.5313 31.4609 75.5313 31.4609Z" fill="#78A3AD"/>
<path d="M75.5312 31.4609C75.5312 36.9531 64.0312 40.0078 49.8594 40.0078C35.6797 40.0078 24.1875 36.9531 24.1875 31.4609C24.1875 25.9766 35.6797 22.9141 49.8594 22.9141C64.0312 22.9141 75.5312 25.9766 75.5312 31.4609Z" fill="white"/>
<path d="M49.8516 27.4609C63.1328 27.4609 69.4453 30.1562 70.8125 31.4688C69.4453 32.7734 63.1328 35.4688 49.8516 35.4688C36.5703 35.4688 30.2656 32.7734 28.8984 31.4688C30.2656 30.1562 36.5781 27.4609 49.8516 27.4609ZM49.8516 22.9141C35.6719 22.9141 24.1797 25.9766 24.1797 31.4609C24.1797 36.9531 35.6719 40.0078 49.8516 40.0078C64.0312 40.0078 75.5234 36.9531 75.5234 31.4609C75.5312 25.9766 64.0312 22.9141 49.8516 22.9141Z" fill="#78A3AD"/>
<path d="M66.6562 45.8047C66.039 45.3125 65.1953 45.7266 64.375 45.9062C59.6172 46.9375 54.7031 47.2578 49.8515 47.2578C48.6484 47.2578 47.4531 47.2344 46.2578 47.1875C43.7968 47.0937 41.3359 46.8906 38.8906 46.5391C37.7968 46.3828 36.7109 46.1953 35.625 45.9687C35.125 45.8672 34.6093 45.6719 34.1015 45.625C33.7656 45.5859 33.0937 45.5859 32.8593 45.8437C32.7031 46.0156 32.6172 46.4141 32.5625 46.6406C32.3672 47.4609 32.3515 48.3281 32.1718 49.1562C31.1015 54.7812 27.3828 59.8047 29 67.6094C31.6093 80.1641 49.3515 79.8125 49.3515 79.8125C49.3515 79.8125 49.539 79.8125 49.8593 79.8047C50.1875 79.8125 50.375 79.8125 50.375 79.8125C50.375 79.8125 68.1093 80.1641 70.7187 67.6094C72.3437 59.8047 68.6172 54.7812 67.5468 49.1562C67.4297 48.5469 67.3125 47.9531 67.25 47.3359C67.2109 46.9844 67.2109 46.6016 67.039 46.2812C66.9409 46.1008 66.8113 45.9394 66.6562 45.8047Z" fill="#F79329"/>
<mask id="mask0_1_80" style="mask-type:luminance" maskUnits="userSpaceOnUse" x="5" y="0" width="46" height="54">
<path d="M24.8358 46.5781C25.328 45.2265 25.5624 43.8437 25.9452 42.4843C26.0936 41.9687 26.0624 41.4218 26.1874 40.8984C26.2889 40.4687 26.3593 40.1718 26.2733 39.7343C26.0546 38.6406 25.6718 38.3515 25.4686 37.2577C25.3514 36.6562 25.2499 34.6484 25.3983 34.039C25.7264 32.6562 27.2108 31.0937 29.6171 31.9843C31.1874 32.5624 32.0311 33.1874 33.5858 33.8202C33.9452 33.9609 34.2343 34.0937 34.6093 33.9374C35.1327 33.7187 35.5624 33.2343 35.9999 32.8827C36.453 32.5312 36.9061 32.1874 37.3046 31.7734C38.6405 30.3984 40.1561 29.1562 41.3124 27.6093C41.9921 26.7031 42.8202 25.8437 43.578 24.9999C44.6093 23.8593 45.6718 22.7187 46.6561 21.539C47.9843 19.9531 48.8749 18.1796 49.5389 16.2499C50.0702 14.6952 50.8124 13.0077 50.8749 11.3515C50.8983 10.5859 50.7811 9.99994 50.6327 9.27337C50.4921 8.56244 50.5936 7.88275 50.3749 7.18744C50.1874 6.58587 49.7577 6.17962 49.3905 5.68744C48.9843 5.14056 48.5936 4.6015 48.1718 4.06243C47.5858 3.32806 47.1483 2.73431 46.2733 2.29681C43.7108 1.02337 40.5702 0.843685 37.7733 0.554622C31.8671 -0.0625652 25.578 0.749935 19.9921 2.77337C17.4452 3.69525 14.8436 5.12494 12.8749 7.00775C11.8124 8.02337 11.1718 9.31244 10.3905 10.5468C9.41394 12.0937 8.46863 13.7343 7.77332 15.4374C6.67176 18.1562 6.42957 21.0859 5.83582 23.9218C5.53894 25.3046 5.41394 26.8124 5.40613 28.2343C5.39051 29.7343 5.87488 31.3046 6.07801 32.7812C6.71082 37.3671 7.62488 42.0546 9.86707 46.1484C11.5624 49.2656 13.2968 52.3359 16.8436 53.5077C18.3358 53.9999 20.6405 54.3671 21.6483 52.7343C22.7577 50.9062 24.0233 48.789 24.8358 46.5781Z" fill="white"/>
</mask>
<g mask="url(#mask0_1_80)">
<path d="M17.5701 46.7577C17.406 46.8983 17.2263 47.0155 17.0232 47.0623C15.6795 47.4139 14.9842 45.8905 14.3826 45.0155C13.5524 43.7958 12.8433 42.498 12.2654 41.1405C11.117 38.453 10.492 35.578 10.2029 32.6717C9.53103 25.992 10.7185 19.6248 14.8201 14.4452C20.281 7.57016 27.5388 5.53109 34.3357 5.58578C36.992 5.60922 39.6404 6.09359 42.1873 6.84359C43.6092 7.25766 46.031 8.12484 45.9373 9.44516C45.7967 11.3202 43.906 13.2655 42.8357 14.6561C40.7732 17.3514 38.6326 19.992 36.4295 22.578C34.117 25.2889 32.2654 28.3436 30.1873 31.2186C26.8982 35.742 17.7654 46.6014 17.5701 46.7577Z" fill="#F79329"/>
<mask id="mask1_1_80" style="mask-type:luminance" maskUnits="userSpaceOnUse" x="10" y="5" width="36" height="43">
<path d="M17.5701 46.7577C17.406 46.8983 17.2263 47.0155 17.0232 47.0623C15.6795 47.4139 14.9842 45.8905 14.3826 45.0155C13.5524 43.7958 12.8433 42.498 12.2654 41.1405C11.117 38.453 10.492 35.578 10.2029 32.6717C9.53103 25.992 10.7185 19.6248 14.8201 14.4452C20.281 7.57016 27.5388 5.53109 34.3357 5.58578C36.992 5.60922 39.6404 6.09359 42.1873 6.84359C43.6092 7.25766 46.031 8.12484 45.9373 9.44516C45.7967 11.3202 43.906 13.2655 42.8357 14.6561C40.7732 17.3514 38.6326 19.992 36.4295 22.578C34.117 25.2889 32.2654 28.3436 30.1873 31.2186C26.8982 35.742 17.7654 46.6014 17.5701 46.7577Z" fill="white"/>
</mask>
<g mask="url(#mask1_1_80)">
<path d="M18.8279 18.7265C17.6951 20.1796 17.0545 22.0468 17.0076 23.8828C16.9686 25.3671 17.2732 27.0546 18.7107 27.7499C19.6092 28.1874 32.2186 31.0234 33.1092 30.3749C33.617 29.9999 33.7654 29.4531 33.6482 28.8359C33.4529 27.7499 28.1404 17.414 26.1873 15.5781C24.3279 13.8124 21.2576 15.6093 18.8279 18.7265ZM15.5076 37.8124C17.4842 43.3828 20.8045 45.5156 20.8045 45.5156C20.8045 45.5156 21.7889 45.2812 22.4842 45.2109C23.117 45.1406 23.3514 44.7968 23.7576 44.3906C24.3201 43.8203 24.9686 43.3437 25.5154 42.7656C26.2186 42.0234 26.8201 41.1328 27.4998 40.3437C28.0467 39.7187 28.4139 38.9609 28.8592 38.2734C29.1951 37.7499 29.6326 37.3828 29.9764 36.8749C30.7029 35.8124 32.7107 34.1562 32.6951 32.8203C32.6873 32.4765 33.1014 31.1484 33.1014 31.1484C33.1014 31.1484 19.1014 31.1406 16.9686 31.789C14.5232 32.5234 14.2732 34.3515 15.5076 37.8124ZM39.6482 10.3671C41.0779 10.8281 43.9139 11.8984 44.8279 13.4609C45.1717 14.0546 44.367 15.3749 44.0779 15.8749C43.6717 16.5703 43.3826 17.3203 42.9607 17.9999C42.4295 18.8749 41.7186 19.6796 41.1404 20.5468C40.6795 21.2343 40.0467 21.7968 39.4998 22.3984C39.0857 22.8593 38.8357 23.3749 38.4373 23.8437C37.6014 24.8203 36.4998 27.1015 35.2264 27.5156C34.0232 27.914 31.6014 20.1562 30.1482 12.6015C29.8279 10.9531 31.4451 10.2968 33.1326 9.92963C35.7107 9.35932 38.2889 9.93744 39.6482 10.3671Z" fill="#FCC21B"/>
</g>
</g>
<path d="M94.6796 18.5156C92.4999 16.3515 89.9843 15.3359 87.3671 14.9843C87.6327 15.0156 87.9374 13.9687 87.9921 13.8046C88.1483 13.3593 88.3905 13.1249 88.6874 12.7499C88.9608 12.3984 89.1171 12.0312 89.2968 11.6406C89.6718 10.8437 89.7733 10.2031 89.6718 9.31245C89.5546 8.24995 89.2421 7.36714 88.5937 6.51557C88.0312 5.77339 87.4296 4.93745 86.6405 4.42964C85.8593 3.92964 85.2265 3.66401 84.3046 3.66401C83.039 3.66401 82.203 2.60932 81.0155 2.2812C79.1952 1.7812 77.6483 2.49995 76.1483 3.44526C75.7968 3.66401 73.8827 4.73432 74.0624 5.17182C73.789 4.49214 73.4765 3.82807 73.078 3.20307C70.7968 -0.414114 66.0077 -0.398488 62.6015 1.37495C61.6874 1.85151 61.1562 2.74214 60.1405 3.1562C59.289 3.50776 58.6327 4.14839 57.9843 4.78901C56.4374 6.31245 56.1093 8.73432 56.3593 10.7656C56.6093 12.8046 57.6796 14.1015 59.2968 15.1718C57.289 15.3593 55.3749 15.9765 53.8124 17.2734C51.9921 18.7812 50.9765 20.7734 50.9999 23.1953C51.0155 24.664 51.789 26.1484 51.8905 27.7109C51.9687 28.9296 52.5937 30.0624 53.2577 31.0234C55.6249 34.4374 60.3593 35.4609 64.1483 34.2265C64.2108 35.3906 64.4452 36.4999 64.9296 37.4453C65.7187 39.0078 67.3358 40.4531 68.8905 41.0625C69.9374 41.4765 71.4687 41.2968 72.414 41.9374C73.328 42.5624 74.2421 42.9296 75.328 42.9531C79.4687 43.0546 83.8671 40.4296 85.0937 36.1484C85.2655 35.5312 85.3437 34.8749 85.3437 34.2031C87.6405 34.4531 89.9452 34.1484 91.1952 33.4374C92.5624 32.6484 93.1171 31.2265 94.3905 30.3828C95.4921 29.6562 96.5077 28.4609 96.3202 26.9609C95.9296 23.8828 97.3671 21.1875 94.6796 18.5156Z" fill="#ED6C30"/>
<path d="M71.6641 11.2657C71.3906 11.2969 71.1016 11.1407 70.7266 10.9141C69.9766 10.461 69.2969 9.89069 68.5078 9.49225C67.6328 9.05475 66.7109 8.65632 65.7344 8.53132C65.3828 8.48444 64.9609 8.41413 64.6172 8.54694C63.3359 9.04694 64.1563 10.1563 64.7734 10.8282C65.5781 11.7032 66.4531 12.5157 67.1406 13.5001C67.6797 14.2657 69.6484 16.3516 67.4219 15.8126C66.4219 15.5704 65.3281 15.5626 64.3047 15.5938C63.3359 15.6251 62.3828 15.8282 61.5938 16.4063C61.3359 16.5938 60.9297 16.9141 61.0156 17.2891C61.0859 17.6173 61.4766 17.8048 61.75 17.9298C62.7656 18.3907 63.9141 18.5626 64.9922 18.8204C65.4609 18.9376 65.9766 19.0313 66.3984 19.2813C67.2891 19.8204 65.9375 20.1173 65.5391 20.3204C65.1719 20.5079 64.7734 20.6563 64.4063 20.8594C63.9375 21.1173 63.4766 21.3829 63.0313 21.6876C62.7891 21.8594 62.5469 22.0313 62.3281 22.2344C61.7656 22.7501 61.1641 24.1094 62.4063 24.1094C62.9297 24.1094 63.4453 24.0548 63.9609 23.9923C64.5625 23.9141 66.9063 23.211 67.2422 24.0079C67.4297 24.461 66.9063 24.9766 66.7031 25.3438C66.2656 26.1563 65.8906 27.0079 65.6719 27.8985C65.4844 28.6798 65.1563 30.1954 66.2813 30.4219C67.25 30.6173 68.1328 29.4923 68.7188 28.8829C69.5234 28.0469 70.2734 27.1016 71.3125 26.5469C72.9688 25.6641 72.5391 28.2735 72.4531 29.2969C72.3672 30.3438 72.4375 31.4219 72.4375 32.4688C72.4375 32.8829 72.3828 33.4219 72.875 33.5704C74.8828 34.1641 75.25 30.3516 75.6875 29.1563C76.3125 27.4298 77.7734 29.2501 78.3438 30.0313C78.6953 30.5157 80.4844 34.0782 81.1797 32.3438C81.4297 31.7188 81.2891 30.8673 81.2891 30.1954C81.2891 29.4923 81.0859 28.7891 80.8984 28.1329C80.8125 27.8438 80.6953 27.5626 80.625 27.2735C80.5547 26.9688 80.5 26.7891 80.8516 26.7501C82.0547 26.6094 83.25 27.2813 84.3203 27.7344C84.6719 27.8829 87.7266 29.0626 87.8828 28.3204C88.1172 27.2032 87.2813 26.1407 86.5781 25.3751C86.1406 24.8985 85.6719 24.4688 85.1875 24.0391C84.8438 23.7344 84.375 23.4844 84.7813 23.0157C84.9219 22.8594 85.0547 22.8048 85.2656 22.7969C85.9297 22.7735 86.625 22.8907 87.2969 22.8907C87.9375 22.8985 89 23.1876 89.5625 22.7969C90.5625 22.1094 89.0469 20.6016 88.7656 19.8985C88.5 19.2344 87.9297 18.6798 87.3828 18.2188C86.8148 17.7339 86.1708 17.3459 85.4766 17.0704C85.125 16.9298 84.7656 16.8282 84.3984 16.7579C84.2969 16.7344 83.25 16.6563 83.25 16.6485C82.9453 15.5704 87.1719 12.4454 87.8984 11.1954C86.8125 10.9688 85.2578 10.9688 84.1641 11.1954C83.2422 11.3907 82.4375 11.9063 81.5547 12.1798C81.2734 12.2657 80.7031 12.4844 80.4141 12.3126C80.1094 12.1251 80.2891 11.6407 80.3828 11.3751C80.5234 10.9923 80.8906 10.586 81.1641 10.2735C81.6563 9.69538 82.7578 8.50007 81.2891 8.39069C79.9766 8.29694 78.6484 9.32819 77.6094 10.0235C77.2031 10.2969 76.8438 10.6719 76.4453 10.9688C76.2344 11.1251 76.0703 11.3126 75.7891 11.1407C75.6016 11.0235 75.5 10.7579 75.5234 10.5469C75.5859 10.0235 75.7891 9.51569 75.9688 9.0235C76.2188 8.34382 76.7578 7.36725 76.6172 6.63288C76.4609 5.80475 75.5313 6.20319 75.1016 6.56257C74.6172 6.961 74.2578 7.50007 73.8906 7.98444C73.4922 8.50007 73.1406 9.04694 72.8281 9.61725C72.6094 10.0235 72.5469 10.4688 72.2734 10.8438C72.0391 11.1094 71.8594 11.2344 71.6641 11.2657Z" fill="white"/>
<path d="M98.1014 10.7189C95.7264 7.73448 91.7811 7.1798 88.203 7.9298C86.0858 8.37511 84.4452 9.8673 82.4608 10.6329C80.2421 11.4845 77.7499 11.3595 75.578 12.3126C70.7343 14.422 68.8046 22.0157 74.6639 24.1642C76.3358 24.7814 78.1952 25.1173 79.9608 24.7267C82.3124 24.211 83.8202 22.0314 86.1405 21.461C87.7577 21.0626 89.4608 21.2814 91.0936 20.9689C91.7655 20.836 92.4374 20.672 93.0858 20.461C94.7421 19.9298 96.5155 19.1564 97.7733 17.922C99.7186 16.0001 99.7577 12.797 98.1014 10.7189Z" fill="#ED6C30"/>
<path d="M93.1251 17.1251C92.211 17.5235 91.2266 17.8048 90.297 17.922C88.672 18.1329 87.0548 17.797 85.3907 18.1954C83.086 18.7345 81.3204 20.7188 79.0548 21.3517C76.2735 22.1329 74.1563 21.0157 74.1407 18.086C74.1329 17.0704 74.6563 16.5157 75.5235 15.9688C77.3204 14.8282 79.5782 14.7579 81.5782 14.1642C82.3829 13.9298 83.2032 13.586 83.9923 13.2423C84.711 12.9298 85.3516 12.461 86.0391 12.0548C87.6329 11.1173 90.172 10.6485 91.9923 10.8204C93.8829 11.0001 96.3126 11.3517 96.3048 13.6954C96.297 15.1329 95.8282 15.547 94.6641 16.3048C94.1876 16.6173 93.672 16.8907 93.1251 17.1251Z" fill="#FCC21B"/>
</svg>
