<svg width="100" height="100" viewBox="0 0 100 100" fill="none" xmlns="http://www.w3.org/2000/svg">
<path d="M12.7423 50.8827C16.961 36.5859 34.2735 30.8124 47.6329 30.7656C60.2814 30.7187 75.3751 34.5156 83.7735 44.7578C85.6563 47.0468 86.9767 49.7343 87.4767 52.6406C88.5079 58.5546 85.4298 64.6562 80.7188 68.2734C76.431 71.58 71.4581 73.8862 66.1642 75.0234C63.2579 75.6484 60.2423 76.0937 57.2657 76.3359C53.4298 76.6406 49.4845 76.5937 45.6485 76.3124C42.3204 76.0702 38.9532 75.6327 35.6876 74.9921C29.6173 73.789 23.047 71.9999 18.1954 68.0546C15.961 66.2343 14.211 63.5468 13.297 60.8515C12.3282 58.039 11.8907 53.7734 12.7423 50.8827Z" fill="#855C52"/>
<path d="M99.7812 57.8829C99.8359 54.9845 99.2812 52.0079 97.875 49.4142C96.8984 47.6017 95.4688 45.9845 93.5859 44.9298C92.625 44.3907 91.5703 44.0157 90.4688 43.797C89.2344 43.5548 88.0703 43.547 87.0156 43.0157C86.0781 42.547 85.4062 41.4923 84.7109 40.7189C83.9375 39.8751 83.125 39.0704 82.2734 38.3126C80.5648 36.7846 78.7214 35.4144 76.7656 34.2189C72.2734 31.4532 67.2656 29.5548 62.1172 28.547C52.6406 26.6954 42.1953 26.297 32.9297 29.3595C27.3594 31.2032 21.875 33.8361 17.4453 37.7892C16.4847 38.6421 15.6011 39.578 14.8047 40.5861C14.1172 41.4611 13.4766 42.2579 12.5156 42.8673C12.2266 43.047 11.9766 43.2032 11.6406 43.2657C10.125 43.5392 8.58593 43.8048 7.15625 44.3829C3.16406 45.9845 0.968748 51.4767 0.44531 55.3907C0.0468727 58.3595 -0.0156273 61.6017 1.72656 64.1564C3.75 67.1173 7.57812 66.9376 9.75 69.547C11.5391 71.6954 11.9062 74.8751 13.2734 77.297C15.2969 80.8829 18.1797 83.9142 21.5 86.3282C28 91.0392 36.0703 93.5001 44.0234 94.1486C48.5234 94.5157 53.3828 94.3985 57.8516 93.7657C66.375 92.5548 74.6641 88.5704 80.6172 82.3126C82.6016 80.2189 84.3203 77.8673 85.6641 75.3126C86.3516 74.0001 86.9375 72.6251 87.4219 71.2267C88.2969 68.672 89.9062 68.3751 92.2969 67.7657C93.3125 67.5079 94.2891 67.1329 95.1875 66.6173C96.9453 65.6017 98.2422 64.0782 98.9609 62.2814C99.5234 60.8829 99.75 59.3751 99.7812 57.8829ZM12.7422 50.8829C16.9609 36.5861 34.2734 30.8126 47.6328 30.7657C60.2812 30.7189 75.375 34.5157 83.7734 44.7579C85.6562 47.047 86.9766 49.7345 87.4766 52.6407C88.5078 58.5548 85.4297 64.6564 80.7188 68.2735C76.4309 71.5801 71.458 73.8864 66.1641 75.0235C63.2578 75.6485 60.2422 76.0939 57.2656 76.336C53.4297 76.6407 49.4844 76.5939 45.6484 76.3126C42.3203 76.0704 38.9531 75.6329 35.6875 74.9923C29.6172 73.7892 23.0469 72.0001 18.1953 68.0548C15.9609 66.2345 14.2109 63.547 13.2969 60.8517C12.3281 58.0392 11.8906 53.7735 12.7422 50.8829Z" fill="#B89278"/>
<mask id="mask0_1_59" style="mask-type:luminance" maskUnits="userSpaceOnUse" x="8" y="28" width="80" height="49">
<path d="M8.8203 40.0936C13.0312 25.789 34.5547 28.6249 47.9219 28.578C60.5703 28.5311 76.4375 31.8358 84.8359 42.078C86.7109 44.3671 86.9687 49.7343 87.4766 52.6405C88.5078 58.5546 85.4297 64.6561 80.7187 68.2733C76.4309 71.5799 71.458 73.8861 66.1641 75.0233C63.2578 75.6483 60.2422 76.0936 57.2656 76.3358C53.4297 76.6405 49.4844 76.5936 45.6484 76.3124C42.3203 76.0702 38.9531 75.6327 35.6875 74.9921C29.6172 73.789 23.0469 71.9999 18.1953 68.0546C15.9609 66.2343 14.2109 63.5468 13.2969 60.8515C12.3281 58.039 7.97655 42.9765 8.8203 40.0936Z" fill="white"/>
</mask>
<g mask="url(#mask0_1_59)">
<path d="M35.4607 42.8201C35.3279 41.7889 36.2888 40.4529 36.7966 39.5936C37.4685 38.4686 38.3045 36.9842 39.242 36.0545C40.0154 35.2811 42.1326 34.6795 43.2029 34.8748C43.8435 34.9842 44.656 35.4607 45.2341 35.7264C46.2732 36.1873 47.4451 36.7498 48.4216 37.3123C49.2888 37.8123 50.8357 39.2029 51.9763 38.7811C52.7263 38.4998 53.5466 37.6482 54.3045 37.2654C55.4841 36.6717 56.7029 36.1482 57.8591 35.5232C58.5701 35.1404 59.617 34.2732 60.4685 34.2811C61.7029 34.2889 62.781 35.3201 63.6873 36.0311C64.3357 36.5389 65.0232 36.8904 65.6326 37.4686C66.2263 38.0389 66.6404 38.6951 67.1717 39.3123C67.6873 39.9139 69.1951 41.1795 69.2185 42.0389C69.2341 42.8826 66.6638 43.9373 65.9841 44.2186C64.9138 44.6639 63.7498 44.8357 62.6482 45.2107C61.742 45.5232 60.4763 45.5545 59.6638 46.0467C58.3826 46.8201 58.1482 49.2732 57.742 50.5701C57.4998 51.3514 57.3045 51.8904 57.2966 52.7498C57.281 53.8592 56.2888 54.5076 55.3748 55.1326C54.156 55.9686 52.8982 56.5154 51.5857 57.1639C50.3826 57.7576 49.6638 57.9139 48.3045 57.9139C47.0232 57.9217 46.906 57.6482 46.5232 56.3904C46.0076 54.7029 45.7576 53.0311 45.031 51.4061C44.6482 50.5545 44.1873 49.7811 43.8513 48.9373C43.5935 48.2967 43.4685 47.492 42.906 47.0232C42.1951 46.4061 41.2029 45.9217 40.4138 45.367C39.8435 44.9764 39.3435 44.367 38.6326 44.2186L35.4607 42.8201Z" fill="white"/>
<path d="M15.3203 54.3357C15.2187 53.8982 15.1328 53.4373 14.9687 53.0467C14.3984 51.6951 14.5469 50.2029 14.125 48.8435C13.6094 47.1482 12.8125 45.6248 12.7812 43.7967C12.75 41.8435 13.0859 40.5935 14.625 39.3279C15.5547 38.5623 16.3906 37.8279 17.6484 37.867C20.3984 37.9529 22.25 40.031 24.5 41.2888C25.4687 41.8357 26.6953 41.617 27.7344 41.9763C29.4297 42.5623 30.164 44.0154 30.0469 45.7185C29.9219 47.3904 29.7265 49.1795 29.75 50.8357C29.7734 51.8513 30.2109 53.6404 29.1172 54.2967C28.5469 54.6404 27.5937 54.6248 26.9375 54.5467C24.8125 54.2888 23.1328 52.8045 21.1484 52.1638C19.2031 51.531 18.1172 53.1482 17.1484 54.5154C16.8594 54.9217 16.125 56.117 15.6328 55.2263C15.4844 54.9607 15.3906 54.656 15.3203 54.3357Z" fill="#ED6C30"/>
<path d="M13.828 60.4841C13.8124 63.1873 15.2421 64.9373 16.4061 67.2263C17.7108 69.7888 19.1952 71.742 21.9218 72.9998C23.4608 73.7107 25.5468 73.8826 27.1718 73.406C29.703 72.6482 31.0155 70.656 31.8983 68.2654C32.828 65.7654 32.7343 62.9998 32.1639 60.4216C31.9686 59.5154 32.2811 58.4998 31.9999 57.6716C31.6561 56.6638 30.4374 56.0076 29.4999 55.6716C28.4921 55.3123 27.203 55.5466 26.1249 55.5232C24.7889 55.4998 23.6796 54.281 22.7499 53.3435C22.1561 52.7498 21.6405 52.1091 20.7811 51.9451C19.3827 51.6795 17.3671 51.8045 16.2577 52.7888C14.0702 54.7341 13.8436 57.7654 13.828 60.4841Z" fill="#ED6C30"/>
<path d="M28.7108 52.9451C28.6952 55.6482 30.1249 57.3982 31.2889 59.6873C32.5936 62.2498 34.078 64.2029 36.8046 65.4607C38.3436 66.1716 40.4218 66.3513 42.0624 65.867C44.5936 65.1091 45.9061 63.117 46.7889 60.7263C47.5233 58.742 47.5468 55.7732 46.7264 53.7888C46.1718 52.4451 45.328 51.0623 44.3983 49.9685C43.4686 48.867 42.3202 47.906 41.2186 46.9998C40.6405 46.531 40.1796 46.1248 39.4921 45.8045C38.8124 45.4841 38.0311 45.5388 37.3436 45.2654C36.7499 45.031 36.3358 44.5232 35.6796 44.3982C34.2811 44.1326 32.2655 44.2576 31.1561 45.242C28.953 47.1951 28.7343 50.2185 28.7108 52.9451Z" fill="#ED6C30"/>
<path d="M69.2733 38.8826C68.9374 38.5701 68.6249 38.2967 68.4217 38.0701C66.4842 35.8592 64.6561 34.0467 62.1249 32.4842C59.8827 31.0936 57.7186 32.4686 55.7577 33.6483C54.4296 34.4373 52.5233 35.6405 51.0155 37.0389C50.8983 36.992 50.7811 36.9451 50.6405 36.9139C50.2967 36.8358 49.2733 35.9608 49.0467 35.8123C47.9921 35.078 46.8827 34.4451 45.7108 33.9295C43.5311 32.9842 42.1874 32.6561 40.0546 33.867C37.8592 35.117 36.2342 37.3045 34.578 39.1639C34.1092 39.6951 33.6952 40.3201 33.4921 41.0155C33.2655 41.7655 33.0546 42.7576 32.078 42.4451C31.2108 42.1717 30.7421 41.4608 30.0467 40.9373C29.0702 40.2108 27.7499 39.7342 26.5311 39.6639C24.3124 39.5311 23.4921 37.9764 21.6405 37.2186C19.9061 36.4998 18.2342 36.4139 16.3749 36.5545C13.2733 36.7967 10.328 39.4373 10.3124 42.6561C10.3046 44.4608 10.2655 46.2967 11.0389 47.9764C11.3592 48.6795 11.6249 48.8514 11.6952 49.6326C11.7499 50.2576 11.953 50.7967 12.0546 51.4139C12.2186 52.3983 12.3124 53.6483 11.9921 54.6092C11.6796 55.5467 11.578 56.3905 11.3671 57.3748C11.2186 58.117 11.1483 58.5233 11.3124 59.3123C11.4921 60.2108 11.703 61.0858 11.9452 61.9686C12.2967 63.2186 12.7264 64.4373 13.1483 65.6639C13.5155 66.7342 13.7655 67.2889 14.4843 68.1795C15.5155 69.4451 16.7655 70.5155 17.6014 71.9139C18.3436 73.1717 19.7577 74.0154 21.2421 74.0467C22.0389 74.0623 23.6249 74.0858 23.828 73.0545C24.0077 72.1561 22.7889 71.9998 22.2342 71.6248C20.3124 70.3045 18.6405 69.2576 17.4608 67.1717C16.4217 65.3358 15.9061 63.2655 15.4374 61.2264C15.0467 59.5311 14.9999 57.7264 15.5389 56.0545C16.0936 54.3358 17.5077 53.4764 19.3124 53.3592C20.5077 53.2811 22.1717 55.4529 23.2967 56.0701C25.2655 57.1404 27.203 55.4529 29.2499 57.0779C31.0233 58.4842 30.5936 61.3514 31.5702 63.203C32.7655 65.453 36.1796 63.4608 34.9842 61.2029C34.3671 60.0467 34.4296 58.4608 33.8905 57.2186C33.2342 55.7108 32.3749 54.5701 31.1561 53.6795C31.1483 53.5858 31.1639 53.4998 31.1405 53.3983C30.4608 50.9217 30.9764 46.6795 34.1952 46.4217C35.8358 46.2889 36.6717 46.617 37.9686 47.6326C39.1014 48.5155 40.5389 48.7655 41.5077 49.867C41.6561 50.0311 41.8124 50.1561 41.9764 50.2576C42.1405 50.8123 42.3827 51.3983 42.703 52.0233C43.203 53.0076 43.5233 54.117 44.1014 55.0623C44.2967 55.3826 44.6014 55.617 44.7967 55.9373C45.0702 56.3983 45.1327 56.953 45.4061 57.4217C45.6483 57.8358 45.8671 58.5467 46.3827 58.578C46.7967 58.6092 47.3827 58.3748 47.7655 58.203C48.2186 57.9998 48.7499 57.8592 49.1483 57.5858C50.4296 56.6951 46.8358 51.0076 46.3358 49.8983C45.8202 48.7498 46.2186 48.7342 47.2186 48.0311C48.6483 47.0155 50.5467 45.4217 52.4217 45.5467C53.4999 45.6248 54.3983 46.2264 55.0546 47.0233C55.6561 47.7342 56.4452 49.5545 57.5858 48.5858C58.0624 48.1795 58.453 47.6561 58.8827 47.2108C59.0546 47.0389 59.2108 46.8358 59.3124 46.617C60.1014 44.9764 57.9374 43.5623 56.8046 42.8201C56.1796 42.4139 55.6717 41.8826 54.9686 41.5701C54.6483 41.4295 53.3358 41.3592 53.1639 41.1561C52.4843 40.3514 55.9686 38.3045 56.4217 37.9842C57.5389 37.1873 59.5467 35.242 60.9452 36.2733C63.7108 38.3045 65.5467 40.9998 68.0155 43.2811C68.7264 43.9373 69.9061 43.0858 70.5233 42.6326C72.0936 41.4686 70.4921 39.9764 69.2733 38.8826ZM28.1561 53.2264C26.7655 53.1717 25.3592 53.1326 24.6639 52.453C22.8983 50.7342 21.6483 50.0311 19.1327 49.7655C17.953 49.6405 16.8046 49.8983 15.7421 50.3514C15.4764 49.5467 15.0936 48.7733 14.6796 47.9608C13.9217 46.4842 13.5624 44.9608 13.5311 43.3123C13.453 39.4373 16.8592 39.3123 19.4999 39.9061C21.6405 40.3826 22.453 42.9686 24.9374 43.1248C26.4296 43.2264 28.2577 43.1405 29.2811 44.5545C29.4608 44.8123 29.5546 45.0701 29.6249 45.3358C28.1171 47.5701 27.6874 50.5076 28.1561 53.2264ZM44.1796 45.8358C43.9842 46.0076 43.828 46.1795 43.6561 46.3514C41.9921 45.078 39.9296 44.0936 38.2733 42.9608C37.8671 42.6873 37.1717 42.6248 37.0233 42.117C36.8905 41.6795 37.2577 41.1092 37.4374 40.7186C37.8749 39.7264 38.9842 38.7655 39.7499 38.0155C40.7889 37.0076 41.9921 34.9295 43.6796 35.9217C45.3046 36.8826 46.8592 37.9295 48.4686 38.9139C49.1796 39.3436 50.3592 40.1092 50.453 40.9608C50.5233 41.6092 50.9139 41.8358 50.2108 42.0936C48.0311 42.8905 45.9296 44.3123 44.1796 45.8358Z" fill="#FCC21B"/>
<path d="M66.7031 38.828C66.2734 38.9218 65.8593 39.0077 65.4531 39.0858C64.7577 39.2265 64.1718 39.4843 63.5077 39.7186C62.0156 40.2577 60.8437 40.7968 59.7109 41.9374C58.8827 42.7811 58.414 43.7421 57.7656 44.6952C57.4218 45.203 57.2968 45.7811 57.0859 46.3436C56.8437 46.9686 56.4921 47.4608 56.3046 48.1171C56.0234 49.1015 55.8202 50.0468 55.7421 51.078C55.6484 52.2108 56.0546 53.2577 56.2421 54.3749C56.3281 54.914 56.4765 55.3671 56.7031 55.8593C56.9765 56.4608 56.9765 57.1015 57.2265 57.703C57.6874 58.789 58.4687 59.7343 59.2265 60.6171C60.0077 61.5311 60.9062 62.289 61.8359 63.039C63.3437 64.2577 65.1249 64.6327 67.0156 64.9218C68.9452 65.2265 70.8202 64.8358 72.7577 64.789C74.3046 64.7499 75.7421 64.4843 77.2265 64.0546C78.2656 63.7577 79.4218 63.4452 80.2968 62.8124C81.3671 62.039 81.8437 60.9608 82.4687 59.828C83.0859 58.6952 83.3437 57.3983 83.7109 56.1718C84.039 55.0233 84.2812 53.8358 84.2656 52.6327C84.2109 49.4921 84.0859 46.0858 81.8906 43.6093C79.3984 40.7968 74.8984 38.664 71.1796 38.3202C69.7577 38.1952 68.1796 38.5155 66.7031 38.828Z" fill="#855C52"/>
<path d="M65.2967 55.1716V55.1247C65.3592 54.3278 65.2732 53.4997 65.5389 52.7341C65.7967 52.0154 66.1326 51.32 66.2576 50.5544C66.3904 49.781 65.8045 49.0388 65.242 48.5857C64.4842 47.9685 63.4764 47.7419 62.742 47.0935C62.3514 46.7497 61.8514 46.4294 62.3357 45.9685C62.9139 45.4138 64.1248 45.5935 64.867 45.6638C65.5389 45.7263 66.2811 45.8669 66.9295 46.0388C67.3045 46.1404 67.6717 46.3982 68.0779 46.2966C68.6404 46.1404 69.0545 45.4685 69.4295 45.0544C69.8748 44.5622 70.3436 44.0935 70.8904 43.7107C71.3904 43.3591 72.6717 42.4138 73.3592 42.7107C74.4217 43.1716 72.9686 44.9685 72.7654 45.656C72.5467 46.3904 71.6482 47.781 72.3982 48.4216C72.7498 48.7185 73.1326 48.9841 73.5467 49.1872C73.8748 49.3513 74.1639 49.4294 74.4373 49.6716C75.0779 50.2341 75.8201 50.6638 76.3982 51.2966C76.7498 51.6872 78.117 52.6638 77.6326 53.281C77.1404 53.906 75.3592 53.0544 74.7732 52.8357C73.6014 52.4138 72.3748 51.3982 71.0545 51.7107C70.4295 51.8591 69.9373 52.3122 69.6326 52.8747C69.3436 53.4294 69.1482 53.8122 68.742 54.3122C68.4451 54.6794 68.1951 55.0857 67.9607 55.4919C67.6639 55.9685 67.5154 56.5153 67.2498 56.9919C67.0076 57.4294 66.3592 58.1013 65.7889 57.6716C65.3357 57.3279 65.2654 55.7185 65.2967 55.1716Z" fill="white"/>
<path d="M72.0232 66.4999C69.1326 66.4999 65.9451 65.7577 62.0154 64.1561C61.4842 63.9374 60.9764 63.6483 60.4529 63.2655C59.9061 62.8593 59.4295 62.4218 58.9607 61.9843L58.6092 61.664C57.0857 60.2811 55.992 58.8983 55.3592 57.5546C54.7576 56.289 54.3592 55.1483 54.1873 54.1483C53.9061 52.5624 54.242 50.6405 54.4764 49.2421C54.7732 47.5233 55.3279 45.8905 56.117 44.3671C56.7107 43.2186 57.3826 42.0155 58.3904 40.9999C59.7186 39.664 61.4139 38.914 62.906 38.2499C64.656 37.4765 66.6014 36.9452 68.5311 36.6874C74.1951 35.9452 80.5076 39.1718 83.5701 44.3046C84.1404 45.2499 84.7107 46.2733 85.0389 47.4296C85.5936 49.414 86.0936 51.1718 85.7186 53.4608C85.4217 55.2733 85.0389 56.6405 84.4686 57.8905L84.3123 58.2577C83.9217 59.1171 83.4451 60.1874 82.8592 60.9843C80.117 64.6405 76.4686 66.4999 72.0232 66.4999ZM70.2498 39.7499C69.8201 39.7499 69.3748 39.7733 68.9451 39.8358C67.3357 40.0468 65.6482 40.5077 64.3279 41.0858C62.8279 41.7499 61.5467 42.3124 60.6404 43.2265C59.9529 43.9374 59.4373 44.8593 58.9295 45.828C58.2811 47.0546 57.8436 48.3749 57.6014 49.7577C57.3982 50.9452 57.1248 52.5468 57.3045 53.5936C57.4295 54.3046 57.7342 55.1718 58.2185 56.1718C58.6717 57.1249 59.5467 58.203 60.742 59.289L61.117 59.6327C61.5154 59.9999 61.9061 60.3671 62.3357 60.6796C62.6482 60.9061 62.9373 61.078 63.2264 61.1952C66.7107 62.6171 69.5935 63.3046 72.031 63.3046C75.4685 63.3046 78.1717 61.9218 80.3123 59.0624C80.6873 58.5546 81.0857 57.664 81.3982 56.953L81.5701 56.578C82.0154 55.5936 82.3279 54.4608 82.5779 52.9296C82.8357 51.3436 82.492 50.1093 82.0154 48.4061C81.7654 47.4921 81.3123 46.7108 80.8436 45.9218C78.6326 42.2343 74.3748 39.7499 70.2498 39.7499Z" fill="#FCC21B"/>
<path d="M26.8591 72.5701C26.906 68.7654 28.5623 63.9451 32.0388 61.9216C32.9607 61.3826 33.8044 60.8357 34.8201 60.4919C36.4451 59.9373 38.1951 59.9451 39.8513 59.531C41.3669 59.1482 42.2576 58.3982 43.4294 57.4138C44.2419 56.7341 45.1951 56.1404 46.1169 55.6248C47.6326 54.7888 49.4451 54.4138 51.1716 54.4138C53.7341 54.4138 56.5466 54.9685 58.6638 56.4763C59.6326 57.1638 60.4373 58.1794 61.1013 59.1248C61.7576 60.0857 61.6716 61.2966 61.7498 62.406C61.8826 64.1091 61.7263 65.7419 61.2966 67.3748C60.8435 69.0935 60.531 70.8435 60.0154 72.5388C59.7107 73.5466 59.4138 74.6091 58.8435 75.5076C58.2888 76.3826 57.5232 76.2107 56.5544 76.3982C55.7732 76.5466 54.9919 76.6873 54.2107 76.8044C52.7107 77.031 51.2029 76.9451 49.6873 76.9451C48.1951 76.9529 46.7654 76.7498 45.281 76.5935C43.9294 76.4529 42.5154 76.6951 41.1482 76.6013C39.3123 76.4841 37.2888 76.3435 35.5466 75.7498C34.4841 75.3982 33.4685 75.0544 32.3904 74.8201C31.6091 74.6482 30.3357 74.531 29.7419 73.9607C28.781 73.4998 27.8357 72.9841 26.8591 72.5701Z" fill="#757F3F"/>
<path d="M52.5624 83.5232C52.1093 83.5232 51.664 83.5154 51.2186 83.4998C50.5546 83.4841 49.9218 83.4373 49.289 83.3982C47.078 83.2419 44.7811 83.3591 42.2811 83.0857C37.3671 82.5466 32.2343 81.7966 28.2968 79.0388C27.0936 78.2029 25.8905 77.2419 25.4452 75.5623C25.1874 74.6169 25.078 73.5935 25.1171 72.5076C25.1718 70.8982 25.5311 69.1951 26.2499 67.1404C26.9843 65.031 28.453 62.1794 31.2577 60.5466L31.6952 60.2888C32.4921 59.8201 33.3202 59.3279 34.328 58.9841C35.3983 58.6169 36.4452 58.4763 37.4686 58.3357C38.1718 58.2341 38.8436 58.1404 39.4686 57.9841C40.6249 57.6951 41.289 57.1404 42.3827 56.2263C43.2108 55.531 44.1718 54.8904 45.3515 54.2341C47.0155 53.3123 49.039 52.8201 51.1796 52.8201C54.4686 52.8201 57.453 53.656 59.5936 55.1716C60.8436 56.0544 61.8046 57.3357 62.414 58.2185C63.2108 59.3669 63.2655 60.6482 63.3202 61.6794C63.328 61.8826 63.3358 62.0779 63.3515 62.281C63.4921 64.1404 63.3358 65.9451 62.8515 67.7732C62.6561 68.4529 62.4999 69.1404 62.3436 69.8201C62.1015 70.8591 61.8593 71.9373 61.539 72.9998C61.3202 73.7185 61.203 74.4841 61.078 75.2888C60.8827 76.5388 60.6796 77.8435 60.078 79.1873L59.8515 79.7107C59.3827 80.8357 58.8436 82.1013 56.9843 82.8357C55.4452 83.4373 53.8124 83.5232 52.5624 83.5232ZM51.1718 55.9998C49.5858 55.9998 48.0702 56.3591 46.8827 57.0154C45.8749 57.5701 45.078 58.1013 44.4452 58.6326C43.164 59.7029 42.0936 60.6013 40.2421 61.0701C39.4452 61.2654 38.6561 61.3826 37.8905 61.4841C36.9843 61.6091 36.1171 61.7263 35.3358 61.9919C34.6405 62.2263 34.0233 62.6013 33.3046 63.031L32.8436 63.2966C30.8749 64.4451 29.7968 66.5935 29.2421 68.1951C28.6327 69.9373 28.328 71.3435 28.289 72.6248C28.2577 73.3904 28.3358 74.1091 28.5155 74.7498C28.6796 75.3904 29.3436 75.8982 30.1171 76.4373C33.4452 78.7654 38.1249 79.4373 42.6249 79.9294C45.0311 80.1873 47.3124 80.0779 49.5077 80.2263C50.5269 80.3005 51.5483 80.3396 52.5702 80.3435C53.6015 80.3435 54.7968 80.2888 55.8202 79.8904C56.414 79.656 56.5233 79.4451 56.9218 78.4919C56.9921 78.3044 57.0858 78.1013 57.1718 77.8982C57.6015 76.9451 57.7577 75.906 57.9374 74.8123C58.0702 73.9294 58.2108 73.0232 58.4999 72.0857C58.789 71.1248 59.0155 70.1482 59.2499 69.1248C59.414 68.406 59.578 67.6951 59.7655 66.9763C60.1561 65.4919 60.289 64.0388 60.1718 62.531C60.1561 62.3044 60.1405 62.0701 60.1327 61.8357C60.1015 61.0857 60.0702 60.4294 59.7968 60.031C59.3202 59.3513 58.5936 58.3669 57.7577 57.7654C56.1405 56.6248 53.8046 55.9998 51.1718 55.9998Z" fill="#FCC21B"/>
<path d="M38.1328 77.5389C38.0078 76.8905 38.5078 76.1952 38.7266 75.6014C39.0859 74.6249 39.4609 73.6405 39.9609 72.7264C40.8203 71.1483 41.5625 69.6327 42.7422 68.2577C43.7812 67.0546 45.8906 64.3358 47.8203 64.8671C47.8437 65.2343 48.0781 65.6952 48.0703 66.0311C48.0469 66.5702 47.6875 67.1483 47.4531 67.6249C46.8672 68.8671 45.9453 70.0233 45.2734 71.2343C44.5156 72.6093 43.9141 74.078 43.2812 75.5077C42.75 76.7108 42.1016 77.6249 42.0937 78.9608V78.9296" fill="#FCC21B"/>
<path d="M48.9373 77.4685C49.0623 77.1795 49.1873 76.8826 49.2889 76.5935C49.828 75.0623 50.1483 73.4998 50.8592 72.0154C52.1951 69.1873 54.3045 66.656 57.1951 65.3514C58.1561 64.9217 59.2108 64.5857 60.2186 64.2576C61.1873 63.9451 62.4373 63.7029 63.1717 62.9685C64.4842 61.6482 65.5155 60.531 67.3905 60.0467C69.8436 59.4217 73.2811 59.4138 75.6873 60.2888C76.9764 60.7576 78.1014 61.5701 79.1326 62.4685C80.0936 63.3123 80.8201 64.4764 81.5389 65.5545C82.492 66.9842 82.6873 68.7185 82.6483 70.3904C82.6248 71.9295 82.9764 73.906 81.8436 75.1717C81.4686 75.5779 80.867 75.781 80.4061 76.1014C79.7264 76.5701 79.1326 77.1014 78.4217 77.5467C76.1561 78.9607 73.2186 79.5154 70.6951 80.3279C64.7342 82.2342 58.3592 82.2967 52.1717 82.3123C51.0936 82.3201 48.5936 82.3592 48.2498 81.1248C47.8826 79.7654 48.4373 78.6248 48.9373 77.4685Z" fill="#757F3F"/>
<path d="M57.5779 81.1092C57.656 79.703 58.6716 78.2186 59.1794 76.9452C59.6951 75.6561 60.3044 74.203 61.0623 73.0467C61.9138 71.7577 63.1794 70.7733 64.3435 69.7967C65.0623 69.1874 65.8357 68.3983 66.9138 68.6014C68.0466 68.8202 68.1326 69.8358 67.7107 70.7889C67.3357 71.6405 66.6638 72.5311 66.1716 73.3202C65.4373 74.4999 64.8826 75.6639 64.3591 76.9217C63.7732 78.3202 62.5857 79.5077 62.7419 81.1561V81.1092" fill="#FCC21B"/>
<path d="M51.8514 83.8904C50.5077 83.8904 47.3593 83.8904 46.7108 81.531C46.2186 79.7263 46.8749 78.2341 47.3905 77.031L47.4843 76.8357C47.5936 76.5779 47.6952 76.3279 47.7889 76.0623C47.9764 75.5388 48.1327 75.0076 48.2889 74.4841C48.5936 73.4529 48.9139 72.3904 49.4139 71.3279C50.578 68.8748 52.7655 65.6013 56.5389 63.8982C57.5468 63.4451 58.5936 63.1091 59.6014 62.781C59.9139 62.6794 60.1249 62.6169 60.3436 62.5544C60.9608 62.3748 61.7421 62.1482 62.0389 61.8435L62.2733 61.6013C63.5702 60.2966 64.8046 59.0623 66.9843 58.5076C68.2499 58.1873 69.703 58.0154 71.1952 58.0154C72.4999 58.0154 74.4374 58.1482 76.2186 58.7966C77.5155 59.2654 78.7733 60.0544 80.1639 61.2732C81.1796 62.156 81.9296 63.2966 82.6014 64.2966L82.8436 64.6638C84.1405 66.5935 84.2577 68.8669 84.2264 70.4138C84.2264 70.7029 84.2343 70.9998 84.2421 71.3044C84.2889 72.8357 84.3436 74.7498 83.0155 76.2263C82.5936 76.6951 82.0936 76.9529 81.6952 77.1638C81.5624 77.2341 81.4218 77.3044 81.3046 77.3904C81.0468 77.5701 80.7968 77.7576 80.5546 77.9451C80.1327 78.2654 79.7108 78.5857 79.2499 78.8748C77.3827 80.0388 75.2264 80.6482 73.1405 81.2419C72.4608 81.4294 71.8046 81.6169 71.1639 81.8201C64.828 83.8513 58.1014 83.8669 52.1639 83.8826H51.8514V83.8904ZM49.7421 80.4919C49.9686 80.5857 50.5233 80.7185 51.8593 80.7185H52.078C57.8827 80.7029 64.3514 80.6873 70.2186 78.8123C70.8905 78.6013 71.5858 78.406 72.2889 78.2029C74.1718 77.6716 76.1014 77.1248 77.5858 76.2029C77.9608 75.9685 78.2968 75.7107 78.6405 75.4529C78.9218 75.2341 79.2108 75.0154 79.5155 74.8044C79.7343 74.6482 79.9764 74.5154 80.2264 74.3904C80.3827 74.3044 80.6171 74.1794 80.6796 74.1169C81.1639 73.5857 81.1249 72.4841 81.0936 71.4294C81.0858 71.0701 81.078 70.7185 81.078 70.3826C81.1093 68.5857 80.8514 67.3748 80.2343 66.4607L79.9843 66.0779C79.3983 65.2029 78.7968 64.2966 78.1014 63.6873C77.0155 62.7341 76.078 62.1326 75.1639 61.8044C73.2655 61.1169 70.0311 61.0388 67.8046 61.6091C66.4686 61.9451 65.7108 62.7107 64.5702 63.8669L64.3202 64.1091C63.4374 64.9919 62.2343 65.3513 61.2655 65.6326L60.7343 65.7966C59.6796 66.1404 58.7186 66.4451 57.8827 66.8279C54.9843 68.1326 53.2499 70.7498 52.3202 72.7263C51.9139 73.5701 51.6405 74.4763 51.3593 75.4294C51.1874 75.9998 51.0155 76.5701 50.8202 77.1404C50.703 77.4763 50.5624 77.8044 50.4296 78.1248L50.3436 78.3279C49.8983 79.2341 49.6483 79.8669 49.7421 80.4919Z" fill="#FCC21B"/>
</g>
</svg>
