<svg width="30" height="42" viewBox="0 0 30 42" fill="none" xmlns="http://www.w3.org/2000/svg">
<path d="M14.9998 19.9584C13.6185 19.9584 12.2937 19.4097 11.317 18.4329C10.3402 17.4562 9.7915 16.1314 9.7915 14.7501C9.7915 13.3687 10.3402 12.044 11.317 11.0672C12.2937 10.0905 13.6185 9.54175 14.9998 9.54175C16.3812 9.54175 17.7059 10.0905 18.6827 11.0672C19.6594 12.044 20.2082 13.3687 20.2082 14.7501C20.2082 15.434 20.0735 16.1113 19.8117 16.7432C19.55 17.3751 19.1663 17.9493 18.6827 18.4329C18.199 18.9166 17.6249 19.3002 16.993 19.562C16.3611 19.8237 15.6838 19.9584 14.9998 19.9584ZM14.9998 0.166748C11.1321 0.166748 7.42277 1.7032 4.68786 4.43811C1.95296 7.17301 0.416504 10.8823 0.416504 14.7501C0.416504 25.6876 14.9998 41.8334 14.9998 41.8334C14.9998 41.8334 29.5832 25.6876 29.5832 14.7501C29.5832 10.8823 28.0467 7.17301 25.3118 4.43811C22.5769 1.7032 18.8676 0.166748 14.9998 0.166748Z" fill="#B30F0F"/>
</svg>
