<svg width="100" height="100" viewBox="0 0 100 100" fill="none" xmlns="http://www.w3.org/2000/svg">
<g clip-path="url(#clip0_1_116)">
<path d="M84.375 73.2813C84.375 92.1875 69.0625 92.1875 50 92.1875C30.9375 92.1875 15.625 92.1875 15.625 73.2813C15.625 54.375 31.0937 23.4375 50 23.4375C68.9062 23.4375 84.375 54.2188 84.375 73.2813Z" fill="#DBB471"/>
<path opacity="0.5" d="M84.375 73.2813C84.375 66.875 82.6562 59.0625 79.5312 51.5625C80.1562 56.4062 78.9062 65 64.0625 68.2813C42.9688 72.8125 53.9063 78.75 45.625 79.5313C38.5938 80.1563 19.8438 77.3438 16.0938 66.7188C15.7813 69.0625 15.4688 71.25 15.4688 73.4375C15.625 92.1875 31.0938 92.1875 50 92.1875C68.9062 92.1875 84.375 92.1875 84.375 73.2813Z" fill="#89664C"/>
<path d="M59.2187 64.2187C58.5937 61.0937 55.9374 60.1563 53.1249 60V55.625C53.9062 55.9375 54.8437 56.4063 55.4687 56.875C56.7187 57.6563 57.9687 55.625 56.7187 54.8437C55.6249 54.2187 54.3749 53.5937 53.1249 53.125V47.9688C53.1249 46.4062 50.7812 46.4062 50.7812 47.9688V52.5C49.5312 52.3437 48.2812 52.3437 47.0312 52.5C46.8749 51.4062 46.5624 50.3125 46.2499 49.2187C45.9374 47.6562 43.5937 48.2812 44.0624 49.8437C44.3749 50.9375 44.5312 52.0312 44.8437 53.125C44.6874 53.125 44.6874 53.125 44.5312 53.2812C41.4062 54.5312 39.3749 57.6562 41.7187 60.625C42.8124 62.0312 44.2187 62.5 45.7812 62.8125C45.9374 64.8438 45.9374 66.875 45.9374 68.9062C44.8437 68.2812 43.9062 67.3437 43.1249 66.5625C42.0312 65.4687 40.4687 67.1875 41.4062 68.2812C42.8124 69.8438 44.3749 70.9375 45.9374 71.7188C45.9374 73.4375 46.0937 75.1562 46.2499 76.875C46.4062 78.4375 48.7499 78.4375 48.5937 76.875C48.4374 75.3125 48.2812 73.9062 48.2812 72.3437C49.2187 72.5 50.1562 72.5 51.0937 72.5C51.2499 74.0625 51.4062 75.625 51.5624 77.3437C51.7187 78.9062 54.0624 78.9062 53.9062 77.3437C53.7499 75.625 53.5937 73.9062 53.4374 72.0312C56.8749 70.7812 59.9999 68.125 59.2187 64.2187ZM50.7812 54.8437V60C49.9999 60 49.3749 60.1562 48.7499 60.1562H47.9687L47.4999 54.5313C48.5937 54.5313 49.6874 54.6875 50.7812 54.8437ZM45.1562 59.8437C44.5312 59.6875 43.9062 59.2187 43.2812 58.75C41.8749 57.3437 43.9062 56.0937 45.1562 55.4687C45.3124 57.0312 45.4687 58.4375 45.6249 60C45.4687 60 45.3124 60 45.1562 59.8437ZM50.3124 69.8438C49.5312 70 48.9062 69.8437 48.2812 69.6875C48.1249 67.3437 48.1249 65 48.1249 62.5C49.0624 62.5 49.9999 62.3438 50.9374 62.3438C50.9374 64.8438 51.0937 67.1875 51.0937 69.6875C50.7812 69.8437 50.6249 69.8438 50.3124 69.8438ZM55.4687 68.125C54.8437 68.5937 54.0624 68.9062 53.4374 69.2187C53.2812 66.875 53.2812 64.6875 53.2812 62.3438H54.0624C57.0312 62.9688 57.8124 66.25 55.4687 68.125Z" fill="#89664C"/>
<path d="M53.125 85.9375H49.5312V92.1875L64.0625 100L96.875 89.8438V84.375L84.8437 77.3438L53.125 85.9375Z" fill="#699635"/>
<path d="M50 82.3438C50 82.3438 53.75 88.4375 64.375 93.75C64.375 93.75 80.9375 92.9688 96.875 82.3438C96.875 82.3438 87.6563 77.8125 85 71.875C85 71.875 78.75 80.625 50 82.3438Z" fill="#83BF4F"/>
<path d="M42.9688 85.7813L46.4062 85.625L46.875 91.4063L33.2812 100L0.625 92.9688L0.15625 87.8125L11.25 80.1562L42.9688 85.7813Z" fill="#699635"/>
<path d="M45.625 82.1875C45.625 82.1875 42.3438 88.2813 32.5 94.0625C32.5 94.0625 16.4062 94.5312 0 85.9375C0 85.9375 8.75 80.9375 10.7812 75C10.7812 75 17.6563 82.8125 45.625 82.1875Z" fill="#83BF4F"/>
<path d="M37.8125 83.9063C37.8125 83.9063 37.3438 85.1563 39.5312 85.3125L33.75 90.1563C33.75 90.1563 30.3125 89.8438 29.5312 92.1875C29.5312 92.1875 15.4688 90.625 6.40625 86.5625C6.40625 86.5625 8.28125 85.1563 5.9375 84.2188C5.9375 84.2188 8.59375 82.3438 9.21875 80.625C9.21875 80.625 11.7187 80.9375 12.5 79.0625C12.8125 78.9063 22.1875 84.5313 37.8125 83.9063Z" stroke="#699635" stroke-width="0.25" stroke-miterlimit="10"/>
<path d="M13.75 86.0937C15.3896 86.0937 16.7187 85.1843 16.7187 84.0625C16.7187 82.9407 15.3896 82.0312 13.75 82.0312C12.1104 82.0312 10.7812 82.9407 10.7812 84.0625C10.7812 85.1843 12.1104 86.0937 13.75 86.0937Z" fill="#699635"/>
<path d="M29.6875 81.5625C29.6875 81.5625 26.0937 86.25 18.2812 92.6562L18.75 96.875L13.2812 95.625L12.9688 91.0937C12.9688 91.0937 20.9375 83.75 22.6562 80.1562C22.5 80.1562 25.3125 81.0937 29.6875 81.5625ZM65.7812 80.4687C65.7812 80.4687 67.1875 84.2187 77.8125 91.0937V95.625L83.9062 93.75V89.0625C83.9062 89.0625 76.5625 83.9062 72.1875 78.75L65.7812 80.4687Z" fill="#F9F3D9"/>
<path d="M56.875 75.4688L53.4375 75.3125L53.125 81.7188L67.0313 90.625L99.6875 81.7188L99.8438 76.0938L88.4375 68.125L56.875 75.4688Z" fill="#699635"/>
<path d="M54.0625 71.5625C54.0625 71.5625 57.5 78.125 67.6563 84.0625C67.6563 84.0625 83.9063 84.0625 100 74.0625C100 74.0625 91.0938 68.9062 88.9063 62.5C88.9063 62.5 82.1875 71.25 54.0625 71.5625Z" fill="#83BF4F"/>
<path d="M61.0937 73.2813C61.0937 73.2813 61.875 74.5313 59.375 75L65.9375 80.1563C65.9375 80.1563 69.6875 79.2188 70.9375 81.4062C70.9375 81.4062 86.5625 78.5938 93.75 74.8438C93.75 74.8438 91.4062 73.75 93.75 72.3438C93.75 72.3438 90.9375 70 89.8438 68.4375C89.8438 68.4375 87.1875 69.2188 85.7813 67.3438C85.7813 67.5 80.1562 72.5 61.0937 73.2813Z" stroke="#699635" stroke-width="0.25" stroke-miterlimit="10"/>
<path d="M73.1249 77.1875C72.4999 77.9688 70.4687 78.2813 68.7499 77.8125C67.0312 77.3438 66.2499 76.25 66.8749 75.4688C67.4999 74.6875 69.5312 74.375 71.2499 74.8438C72.9687 75.3125 73.7499 76.25 73.1249 77.1875Z" fill="#699635"/>
<path d="M70 70.3125C70 70.3125 73.75 75.3125 81.7188 82.0312L81.5625 86.7187L87.0313 85.1562L87.1875 80.1562C87.1875 80.1562 79.0625 72.3438 77.0312 68.5938C77.1875 68.5938 74.5312 69.6875 70 70.3125Z" fill="#F9F3D9"/>
<path d="M71.875 3.125C71.875 12.6562 59.5312 28.125 50 28.125C40.4688 28.125 28.125 14.2188 28.125 4.6875C28.125 -4.84375 29.5313 4.6875 39.0625 4.6875C40.4688 4.6875 47.0312 0 50 0C52.0312 0 57.8125 4.6875 60.9375 4.6875C69.2188 4.6875 71.875 -4.0625 71.875 3.125Z" fill="#DBB471"/>
<path d="M47.1875 20.7813C46.25 21.4063 41.7188 20.9376 40.3125 22.0313C38.4375 23.4376 41.0938 26.7188 39.2188 28.7501C35.4688 32.5001 32.5 36.7188 33.4375 39.0626C35 43.1251 37.9688 31.5626 40.625 35.9376C43.2813 40.3126 42.8125 32.9688 46.875 36.7188C50.9375 40.4688 47.5 30.0001 51.4063 34.5313C55.3125 39.0626 55.4688 44.2188 58.2813 44.2188C61.5625 44.2188 54.8438 31.8751 59.2188 34.8438C63.5938 37.8126 68.4375 36.7188 64.0625 32.1876C62.6563 30.7813 60.7813 28.2813 58.5938 26.0938C57.8125 25.3126 58.4375 21.2501 57.6563 20.6251C56.7188 19.8438 54.375 22.3438 53.4375 21.8751C51.5625 20.9376 52.1875 22.6563 49.375 23.1251C47.5 23.7501 49.0625 19.5313 47.1875 20.7813Z" fill="#89664C"/>
<path d="M29.2188 29.9999C35.3125 24.2187 46.4063 27.4999 52.9688 30.3124C59.375 33.1249 63.2813 24.2187 59.2188 19.6874C56.875 17.0312 53.125 20.1562 51.7187 22.0312C50.1562 23.9062 48.9063 25.9374 47.1875 27.8124C44.6875 30.6249 38.5938 28.2812 40.4688 24.3749C42.5 20.3124 51.0938 24.9999 53.9062 25.7812C59.375 27.3437 65.1562 27.9687 70.625 25.9374C72.5 25.3124 71.7188 22.1874 69.8438 22.9687C63.75 25.1562 57.6563 23.7499 51.875 21.8749C48.9063 20.9374 44.2188 18.4374 41.0938 19.8437C32.1875 24.0624 40.4688 36.0937 47.9688 31.4062C49.6875 30.3124 50.7812 28.5937 52.0312 27.0312C52.8125 26.0937 56.7188 20.1562 57.6563 23.1249C58.125 24.6874 57.6562 27.4999 55.9375 27.9687C54.8438 28.4374 52.6563 26.8749 51.5625 26.5624C49.5313 25.7812 47.5 25.1562 45.3125 24.6874C39.5313 23.4374 31.7188 23.7499 27.1875 27.9687C25.625 29.2187 27.8125 31.4062 29.2188 29.9999Z" fill="#E8E8E8"/>
<path d="M70 0.78125C68.4375 2.03125 65.625 4.6875 60.9375 4.6875C57.8125 4.6875 52.0312 0 50 0C47.0312 0 40.4688 4.6875 39.0625 4.6875C33.9062 4.6875 31.0938 2.03125 29.6875 0.9375C29.6875 0.9375 31.4062 7.96875 36.7188 11.5625C40.625 14.0625 40.1562 11.0938 42.1875 8.28125C44.2188 5.46875 45.625 4.0625 49.2188 11.0938C51.0938 15 54.6875 0.46875 57.5 5.15625C62.6562 13.75 64.5312 9.0625 70 0.78125Z" fill="#89664C"/>
<path d="M81.875 81.875L81.7188 86.5625L87.1875 85L87.3438 80C87.3438 80.1562 84.0625 81.4063 81.875 81.875ZM77.8125 91.25V95.7812L83.9063 93.9062V89.2187C83.75 89.0625 82.1875 90 77.8125 91.25ZM18.2813 92.5L18.75 96.875L13.2813 95.625L12.9688 91.0937C12.8125 91.0937 15 91.875 18.2813 92.5Z" fill="#DBB471"/>
</g>
<defs>
<clipPath id="clip0_1_116">
<rect width="100" height="100" fill="white"/>
</clipPath>
</defs>
</svg>
