<svg width="40" height="40" viewBox="0 0 40 40" fill="none" xmlns="http://www.w3.org/2000/svg">
<path fill-rule="evenodd" clip-rule="evenodd" d="M6.77183 2.08325H13.0235C13.2778 2.08325 13.526 2.16079 13.735 2.30551C13.9441 2.45024 14.104 2.65527 14.1935 2.89325L16.6202 9.34325C16.7001 9.55655 16.7203 9.78765 16.6785 10.0116L15.4618 16.5316C16.9568 20.0449 19.4252 22.4066 23.5168 24.5249L29.9585 23.2749C30.1874 23.2308 30.4241 23.2516 30.6418 23.3349L37.1118 25.8016C37.3484 25.8917 37.5519 26.0515 37.6957 26.2598C37.8394 26.4681 37.9165 26.7152 37.9168 26.9683V32.9416C37.9168 35.6516 35.5302 37.8499 32.7368 37.2416C27.6485 36.1349 18.2202 33.3199 11.6168 26.7166C5.29016 20.3916 3.17016 11.6549 2.4585 6.93325C2.05016 4.23659 4.21183 2.08325 6.77183 2.08325Z" fill="#02A33F"/>
</svg>
