<svg width="34" height="34" viewBox="0 0 34 34" fill="none" xmlns="http://www.w3.org/2000/svg">
<path d="M17 0.333496C19.2102 0.333496 21.3298 1.21147 22.8926 2.77427C24.4554 4.33708 25.3334 6.45669 25.3334 8.66683C25.3334 10.877 24.4554 12.9966 22.8926 14.5594C21.3298 16.1222 19.2102 17.0002 17 17.0002C14.7899 17.0002 12.6703 16.1222 11.1075 14.5594C9.54468 12.9966 8.66671 10.877 8.66671 8.66683C8.66671 6.45669 9.54468 4.33708 11.1075 2.77427C12.6703 1.21147 14.7899 0.333496 17 0.333496ZM17 21.1668C26.2084 21.1668 33.6667 24.896 33.6667 29.5002V33.6668H0.333374V29.5002C0.333374 24.896 7.79171 21.1668 17 21.1668Z" fill="#152767"/>
</svg>
