<svg width="37" height="37" viewBox="0 0 37 37" fill="none" xmlns="http://www.w3.org/2000/svg">
<path d="M35.3668 0.71032L1.0689 12.1457C0.928465 12.1924 0.805568 12.2808 0.716536 12.399C0.627503 12.5172 0.57655 12.6597 0.570445 12.8076C0.56434 12.9554 0.603374 13.1017 0.682359 13.2268C0.761345 13.352 0.876542 13.4501 1.01265 13.5082L13.6168 18.9103C13.6829 18.9389 13.7552 18.9499 13.8267 18.9422C13.8983 18.9346 13.9667 18.9085 14.0251 18.8666L26.3814 10.0374C26.7647 9.76657 27.2356 10.2374 26.9647 10.6207L18.1356 22.977C18.0943 23.0354 18.0688 23.1035 18.0615 23.1747C18.0543 23.2458 18.0654 23.3176 18.0939 23.3832L23.4939 35.9874C23.5518 36.1236 23.6498 36.2389 23.7748 36.318C23.8998 36.3972 24.046 36.4364 24.1938 36.4306C24.3417 36.4247 24.4843 36.374 24.6026 36.2851C24.7209 36.1963 24.8095 36.0736 24.8564 35.9332L36.2918 1.63324C36.3349 1.50468 36.3412 1.36666 36.3101 1.2347C36.2791 1.10273 36.2118 0.98204 36.116 0.886176C36.0201 0.790311 35.8994 0.723071 35.7674 0.692007C35.6355 0.660943 35.4954 0.667284 35.3668 0.71032Z" fill="white"/>
</svg>
