<svg width="42" height="42" viewBox="0 0 42 42" fill="none" xmlns="http://www.w3.org/2000/svg">
<path fill-rule="evenodd" clip-rule="evenodd" d="M13.5376 2.77083C14.121 1.54167 15.3772 0.6875 16.8335 0.6875H25.1668C26.621 0.6875 27.8772 1.54167 28.4626 2.77083C29.8855 2.78333 30.996 2.84792 31.9876 3.23542C33.1714 3.69848 34.201 4.48544 34.9585 5.50625C35.723 6.53333 36.0814 7.85417 36.5751 9.66875L36.6522 9.95208L37.8814 14.4667C38.7009 14.8802 39.4193 15.4691 39.9855 16.1917C41.2814 17.8521 41.5105 19.8292 41.2814 22.0958C41.0564 24.2958 40.3647 27.0667 39.498 30.5354L39.4418 30.7542C38.8939 32.9479 38.448 34.7292 37.921 36.1187C37.3668 37.5687 36.6668 38.7562 35.5105 39.6583C34.3564 40.5604 33.0335 40.95 31.4939 41.1375C30.0168 41.3125 28.1814 41.3125 25.921 41.3125H16.0793C13.8189 41.3125 11.9814 41.3125 10.5064 41.1354C8.96471 40.9521 7.64387 40.5604 6.48762 39.6562C5.33346 38.7562 4.63346 37.5687 4.07929 36.1187C3.55012 34.7292 3.10637 32.9479 2.55846 30.7542L2.50221 30.5354C1.63554 27.0667 0.941791 24.2958 0.718874 22.0979C0.489707 19.8271 0.718874 17.8521 2.01262 16.1917C2.60221 15.4375 3.30846 14.8792 4.11679 14.4667L5.34596 9.95208L5.42512 9.66875C5.91887 7.85417 6.27721 6.53333 7.04179 5.50417C7.79956 4.48413 8.82907 3.69791 10.0126 3.23542C11.0043 2.84792 12.1126 2.78125 13.5376 2.77083ZM13.5397 5.90208C12.1605 5.91667 11.6085 5.96875 11.1501 6.14792C10.5126 6.39725 9.95806 6.82106 9.55012 7.37083C9.18346 7.86458 8.96679 8.55417 8.36262 10.7771L7.62512 13.4771C9.78762 13.1875 12.5793 13.1875 16.046 13.1875H25.9522C29.421 13.1875 32.2126 13.1875 34.373 13.4771L33.6376 10.775C33.0314 8.55208 32.8168 7.8625 32.4501 7.36875C32.0422 6.81898 31.4877 6.39517 30.8501 6.14583C30.3918 5.96667 29.8376 5.91458 28.4585 5.9C28.1624 6.52221 27.696 7.04776 27.1134 7.41575C26.5308 7.78374 25.8559 7.97909 25.1668 7.97917H16.8335C16.1444 7.97909 15.4694 7.78374 14.8869 7.41575C14.3043 7.04776 13.8379 6.52221 13.5418 5.9M16.8335 3.8125C16.6953 3.8125 16.5628 3.86737 16.4652 3.96505C16.3675 4.06272 16.3126 4.1952 16.3126 4.33333C16.3126 4.47147 16.3675 4.60394 16.4652 4.70162C16.5628 4.79929 16.6953 4.85417 16.8335 4.85417H25.1668C25.3049 4.85417 25.4374 4.79929 25.5351 4.70162C25.6327 4.60394 25.6876 4.47147 25.6876 4.33333C25.6876 4.1952 25.6327 4.06272 25.5351 3.96505C25.4374 3.86737 25.3049 3.8125 25.1668 3.8125H16.8335ZM7.87512 16.5958C5.97929 16.8708 5.06054 17.3708 4.47929 18.1167C3.89596 18.8604 3.63554 19.8708 3.82929 21.7792C4.02721 23.7292 4.66262 26.2792 5.56679 29.9042C6.14596 32.2125 6.54596 33.8125 7.00429 35.0083C7.44179 36.1625 7.87304 36.7729 8.41471 37.1958C8.95429 37.6167 9.65012 37.8854 10.8793 38.0333C12.1501 38.1854 13.796 38.1875 16.1793 38.1875H25.8251C28.2064 38.1875 29.8564 38.1854 31.1251 38.0333C32.3543 37.8875 33.0501 37.6167 33.5897 37.1958C34.1314 36.7729 34.5605 36.1625 35.0022 35.0083C35.4564 33.8125 35.8585 32.2125 36.4355 29.9042C37.3418 26.2792 37.9772 23.7292 38.173 21.7792C38.3689 19.8708 38.1064 18.8583 37.5251 18.1146C36.9439 17.3708 36.0251 16.8708 34.1272 16.5958C32.1897 16.3167 29.5605 16.3125 25.8251 16.3125H16.1793C12.4439 16.3125 9.81471 16.3167 7.87721 16.5958" fill="#152767"/>
</svg>
